<svg width="720" height="720" viewBox="0 0 720 720" xmlns="http://www.w3.org/2000/svg">
  <defs>
    <linearGradient id="bg" x1="0" y1="0" x2="1" y2="1">
      <stop offset="0" stop-color="#0D1824"/>
      <stop offset="1" stop-color="#1A334A"/>
    </linearGradient>
  </defs>
  <rect width="720" height="720" fill="url(#bg)"/>
  <g stroke="#8BA66A" stroke-opacity="0.4" fill="none">
    <path d="M120 180l80-60 95 70 95-70 90 55 100-65"/>
    <circle cx="120" cy="180" r="8"/><circle cx="200" cy="120" r="8"/><circle cx="295" cy="190" r="8"/>
    <circle cx="390" cy="120" r="8"/><circle cx="480" cy="175" r="8"/><circle cx="580" cy="110" r="8"/>
  </g>
  <rect x="248" y="120" width="224" height="440" rx="44" fill="#173148" stroke="#A5C7DF" stroke-opacity="0.45"/>
  <rect x="280" y="80" width="160" height="52" rx="18" fill="#22425E"/>
  <rect x="272" y="260" width="176" height="130" rx="16" fill="#0B1823" stroke="#8AD6B8" stroke-opacity="0.6"/>
  <text x="360" y="318" fill="#F2F6FB" text-anchor="middle" font-size="28" font-family="Arial">TB-500</text>
  <text x="360" y="350" fill="#A3BBD0" text-anchor="middle" font-size="18" font-family="Arial">10mg / 3mL</text>
  <circle cx="360" cy="464" r="16" fill="#8AD6B8" fill-opacity="0.9"/>
</svg>
